<svg viewBox="0 0 1024 1024"
  xmlns="http://www.w3.org/2000/svg">
  <path d="M440.571 614.26C459.932 636.89 495.775 637.291 515.08 614.26L637.631 468.491C651.758 448.963 682.564 458.98 682.564 483.101V664.046C682.564 670.825 676.869 675.956 669.664 675.956L655.231 675.956C624.279 675.956 607.396 712.116 627.249 735.887L755.62 892.908C770.292 910.476 797.311 910.343 811.812 892.634L937.666 735.614C957.182 711.78 940.24 675.956 909.457 675.956L898.107 675.956C891.75 675.956 885.198 670.825 885.198 664.046V165.683C885.198 138.796 863.424 117 836.566 117H713.666C693.223 117 673.925 126.466 661.381 142.646L497.432 329.702C487.492 342.525 468.16 342.525 458.219 329.703L301.06 142.642C288.516 126.464 269.22 117 248.778 117H126.632C99.7733 117 78 138.796 78 165.683V768.588C78 795.474 99.7733 817.27 126.632 817.27H232.002C258.861 817.27 280.634 795.474 280.634 768.588V484.011C280.634 459.886 311.447 449.872 325.571 469.408L440.571 614.26Z" fill="#888888" fill-opacity="0.7"/>
</svg>
