<svg width="1024" height="1024" viewBox="0 0 1024 1024" fill="none" xmlns="http://www.w3.org/2000/svg">
<path fill-rule="evenodd" clip-rule="evenodd" d="M449.469 622.554C470.213 646.789 508.616 647.219 529.3 622.554L660.605 466.438C675.741 445.525 708.747 456.252 708.747 482.085V675.873C708.747 683.134 702.646 688.629 694.926 688.629L679.462 688.629C646.299 688.629 628.21 727.355 649.481 752.813L787.021 920.979C802.742 939.793 831.69 939.651 847.227 920.685L982.07 752.52C1002.98 726.995 984.828 688.629 951.846 688.629L939.687 688.629C932.875 688.629 925.855 683.134 925.855 675.873V142.138C925.855 113.343 902.526 90 873.749 90H742.071C720.167 90 699.491 100.137 686.051 117.466L510.392 317.798C499.741 331.531 479.029 331.532 468.378 317.8L299.993 117.462C286.552 100.136 265.878 90 243.976 90H113.106C84.3285 90 61 113.343 61 142.138V787.835C61 816.629 84.3285 839.973 113.106 839.973H226.002C254.779 839.973 278.107 816.629 278.107 787.835V483.06C278.107 457.222 311.122 446.498 326.254 467.42L449.469 622.554Z" fill="white"/>
</svg>
