<svg viewBox="0 0 1024 1024" fill="none"
  xmlns="http://www.w3.org/2000/svg">
  <path d="M444.686 608.269C462.932 629.579 496.71 629.957 514.903 608.269L630.395 470.998C643.708 452.609 672.739 462.042 672.739 484.757V655.152C672.739 661.537 667.372 666.368 660.582 666.368L646.981 666.368C617.812 666.368 601.901 700.42 620.61 722.805L741.586 870.671C755.414 887.215 780.876 887.09 794.542 870.413L913.146 722.547C931.538 700.103 915.572 666.368 886.562 666.368L875.866 666.368C869.875 666.368 863.701 661.537 863.701 655.152V185.844C863.701 160.525 843.181 140 817.87 140H702.05C682.784 140 664.598 148.914 652.776 164.151L498.271 340.301C488.903 352.376 470.686 352.377 461.317 340.302L313.211 164.147C301.389 148.912 283.205 140 263.94 140H148.831C123.519 140 103 160.525 103 185.844V753.599C103 778.918 123.519 799.443 148.831 799.443H248.13C273.442 799.443 293.961 778.918 293.961 753.599V485.614C293.961 462.895 323 453.465 336.31 471.862L444.686 608.269Z" stroke="#607CD2" stroke-width="40"/>
</svg>
